/* XPM */
static char *_a9ba7c8745845d29b9b294d997498ebFam1Gvfwl4Ce91QW[] = {
/* columns rows colors chars-per-pixel */
"92 90 63 1 ",
"  c #A6C4D7",
". c #ABC5D7",
"X c #A6C5D9",
"o c #ACC6D9",
"O c #AEC8DB",
"+ c #B0C6D7",
"@ c #B0C7DB",
"# c #B4CADB",
"$ c #BBCDDE",
"% c #BED0DE",
"& c #B5CCE0",
"* c #B9CEE0",
"= c #BFCDE0",
"- c #BDCEE0",
"; c #B8D0E0",
": c #BBD2E0",
"> c #BCD0E1",
", c #C0CFDB",
"< c #C3CEDB",
"1 c #C1CDDC",
"2 c #C0CFDF",
"3 c #C4CFDC",
"4 c #C1D0DC",
"5 c #C3D0DC",
"6 c #C2D1DF",
"7 c #C0D2DF",
"8 c #C4D1DD",
"9 c #C7D4DE",
"0 c #C9D0DD",
"q c #C8D2DE",
"w c #CBD2DF",
"e c #CBD3DF",
"r c #C8D5DF",
"t c #D2D6DF",
"y c #D4D8DF",
"u c #D9DADF",
"i c #C3CFE0",
"p c #C0D1E1",
"a c #C5D1E0",
"s c #C7D0E0",
"d c #C2D4E1",
"f c #C5D4E2",
"g c #C7D3E4",
"h c #C6D5E5",
"j c #CAD1E0",
"k c #CDD1E1",
"l c #CED3E0",
"z c #CCD3E2",
"x c #CED2E2",
"c c #C9D6E0",
"v c #CAD7E3",
"b c #CBD4E4",
"n c #CCD7E4",
"m c #CFD7E5",
"M c #CDD8E3",
"N c #D2D6E2",
"B c #D5D9E3",
"V c #DCDCE3",
"C c #DBDCE8",
"Z c #E1DEE5",
"A c #DFE0E5",
"S c #E2E0E6",
"D c #E1E0E8",
/* pixels */
".XXoXXXXOXOXXXoX..XoXXooXXXX.. .oXoXXoXXoo.oOXXXooo.XOO...ooooXX.OOXOX..Oooo.OOoX@oo.XXX.Xoo",
"oooooXoXOXXXXoXX..Xo..oX.X..ooXXXXXoXooo.oOXO.OX..oXXoXoOooooooo.ooXoXoO.oooOXo.O@o..oOOO..O",
"ooooooooX@O@o.....o@XX@oXoX.XXooooooOX.oOoOXo.oo.OoooOOO.oooooooOO.XX.OoooXooXOoooo@OXOo.ooo",
"Ooo@o@.@@XXXX oo.Oo@@OOoOooOoooo.ooXOoo.OOOOo oOOOOOO+OO.OoOooo.O+OOOOo.oOoO+@@O@oOOO.oo@oOO",
"OOooOo@o.oOo@X@o.oOoO.X+#oOXX&OOOOooOoO&OOO..oOoOOo.++O.Xo.O#o@@++.#.+++@o@OoOOOOO@@#ooo+OOO",
"o&oooo@o@@oo++o@O.@oOOOOooOOo@OOoOooOOO&@O+oOOO+OOooOOOOOO@@@o@@OOOOO+..o@OOO@#O@.O@OOo@O+.@",
"ooooooo...o@@oo@O+OO+O.OOooOooooooooOOooOo+OOOOOOOOoOO+o@@XO@@@@OOOOOOO.@@@@@@@@O@@#&&&@O@o@",
"oo@@&oo@O@@o@@@@@.OOOO#OOooo@ooooo&OOOooOO#Oo++#oOOO@OO+@#&@@@@oO+##O#O.@O&@@@####@@oO#O#O+O",
"O#O+O#O+O@@##.##++OOOOOOO#OOOO@oo@@@#O#O++#OO+O++O+OO#O#@o&OOO#OOOOOO+#OO#@##O#&@@@####@@##O",
"+OOOO+#OOO@++##@#O#OO+.#OO+@O@@oo#@@@#O+OO#+OO@OOO#OOO@oOO#O#&O&#OOO#+#O###@O##@#####@+##O#O",
"#####+O#@++O##oO####O.OOOO@O@#@@#@@O@#O@+OoO#@@##O+##O+.O#O##OOO#O#O#O#O#######O############",
"O#OO#O##+#O#OO###O########O###@#@@@@##@####O@#&#####+##O++#O#######OO#O#O#O###O###@##@######",
"###OO##OO&O##O##+#####+#O##O#@@@#@###########@#@###+####O#####O#####OO#OOO##$+##@###########",
"####O######&#O##@####@+######@######@##@#########+#O###O#+###O#O###O######O#######@$#%@##@#%",
"O#######O#######%##O+###$#####@##$@O###*####################+$##############+#O$#$@###*#####",
"#######O##############+#O####*#$$##$$#@##;##@#:###+$%##%###$###O####%#######$#########$###%#",
"######;O####$##$@##$$###$####$###@#$#@=@###########$##$##*@##$*@@##:&$$###########$#&$##$###",
"#####%#O####$#@#$####$$##*$###$#$#$#$##$##*####$#$$+@##$##i$$#**$$$####&#$##$#######$#$$#$##",
"########@##$##*######$####$#$$########$#$$#=$#######*$$$$#$###$$#*$##$###########*#$#$###$$$",
";O#######$###:$#$$$$$####$#$#*#$$####$##=##@i$$#$#$$#$###$$#$$*##$##%##$::#%%$##$$#$##$$$##$",
"#$##%#%#####$##$$##$$##$*$##@$$###$$##$##*$#$###$###$$#*$#####$#:#$$$$@$$##%#$#$##$###$#+#$$",
"$###%###$#$$$#$$#$*$$##$*#$#$#$$$@$#$#$*=#=#:@*$$$*$$$$$$*$;#$#$#$#$##$$#$####$@$$$$$**$$$*$",
"#$#%#:;##$#**$$$*$$#*#$$$%#$$##$#$#$$#####$#@%$**#$$*$#$$#$$*#$$%#$$#%$$%#$$:**$#$$#$*$$$$$#",
":#$::##%#$*$$##$=#**=*$*:#$$#$$#$$#$*$$$i$#p$$==$$#$&$$$$*#=$$$###$%$$$$%#*%$$*$$$*$$$$$$2$$",
"*$$:$$$$$$$#$$$$$$$$;$#%%#::#$$$$#$$#$$$%$$$:$$$$$i*$$$$$p$$$$$$$#$$$$%$$$$$$#$$#7$@%$$;p:$$",
"$*$*$$$#$=$$$$$$*$$$%#$##%**$$$#==$$$#$#;*#$$$$$$$$=$<$$:$$$$$$$$$$$$$%#$$*$7$$$%$%$%$$%$$$$",
"$7$$2$$$%%$#$$$$;$$$#$$$%$$*7$$$$$#$$$$$$=#%%$$$$$$<$$$$$$22$$$$$$$<$$%$%$$$$%$$%$$$$$*:=$7:",
"$$$$$$$$*:$%$$$$$$$$$$%$$#$$#$#$$$$$$$#$=$p$$$$$$$$$$2$$2$$2$$$$22$$$57$$%;%$=$$=$%$$$$%i$$%",
"$$i$$$2$$$i:2$$$=$#:*$i$$%2$$$2$$$$$$$$$7=:$$$<$$$$$$2$2$222$p2$222$%2$p$$$%$$$$$7$6$%=75$78",
"=i$$$$$2$$$$2$:=$$$p$$$$%%$$$$$$$$7$$%i%:$%$$$%<$$$i2$$262$2222$$222$$2$%$p%$76$7$$6p=$$$7$$",
"$$$$p7$$ii$$$22$$$7%$%$ip7$2<$$62$$$2p$$$$$ip$$$$$$26p$$3$$$$22<$$22p$3s$$$6$3$$72$$$72$<$7$",
"2$2%p$2p=%$p2$26;:=:p$$$$$$2$267627%$$22$$$%<2$<6$<$$6p$ii2$2pp$6i2273$pp6$$$277$7$p6%%2$$$$",
"p2227=2$7%$$$$22p$6$$$$$227626<$$2726s$623$$<$$i2$2$6p$63pp262663266667=p$6pp%66$667%$766$6<",
"p$<$$i<2<=ii<i$23p3$2<<p722662766$<$<26622$6<$3$32776$2222$62262p726663666p$%726%6$7%7:9f722",
"222$22$32263$7s%i7622<p2isp7p6766$$$$62222$2772$2p$i$p2$666666667s6<$6<666p6667f66776$6p6$77",
"22$77s$32$22<2<<<2<7<60<6pp26s62q27766$278882<p67s667267$7<76626786p2276%76p666$66jp67fs8286",
"2662p23766q2p6622262p6876660p26690<666$6p6662867p6%666%767j66632666ss:%i626s7667667f6666fp66",
"262pp$22<ps$$667326<:s626676660fs66266q6:s6267fp62ppp7:s2s7<6778666qssfi665pb6766p77p7s6p6w6",
"76qis7q637ps66$76762ss6<p3qi6jc6:c76p667ss3i6qss6ssspsps6p327%6876j6psqc8spp6sr:6cffc6r6pps6",
"66667sp62667p%6%6ss37jp7sj6p6ic66fpsqs63pq6q6ppss777c6p3q6686i377677s:6rr9prfff786pssrfrsscs",
"j66$66q<p76786ff606qq66cqs3626qj6scs66qprq86866q8586r666q2j66j73p666rjprqr6crfpssc6qfhsq6qr6",
"86766862ssf66qssc667ss6ss66306p6cj6p6sfqr66b88886866n6jp666ppcj6scc6q6q668869ffsf6q6sff7606c",
"cf78ss6j6q77s66crsffr6rp8q67r<6w6ffrrr67f8sfff67q676sjc%j68qw6rhfr8866rq676fqfrs6h6cscccr2wc",
"sjf67c66p6rs7ff6qs666fjq78ws620rrfq6r6rf8M6rw86s6qff6s9sc68rcr6f6rcrsq666r9rff6ffjrzcjsfcc6r",
"cqs6rs666rc9sfshrcscq8c696rbcssb6wcqb7cjr67q687hqr6qfjf7jqffcc6rssf6q6fcrzrrczjccj6qccnjzscz",
"666ssc8r6fjsp9c:j66q6wfqqfrcccfjqrc6scscrw9srrcsrs6fsccsjqcjsfcccc7fcf6crqcccccsf6wrcfcc6ccc",
"6w6qfcqrsfhs96fjscq7q88q6sfrpfsfc6rwcf9srcccwccjccczjccsfcjjcggjqcfwczsfcczrc7jrrrww6zsjrq6q",
"rrMcqcscccqqMrsccjwrq6wrrNc9r6c3nsw6jccjwjsjwfzNNnrrcjccqsqcccjrjcr7csscjcjwsjcrz6c6wrrcrztc",
"Mzhrw3sfcjjcjr6czrcjcjznsczcq6zr6sbccjbc6njNcjzczNcjz0cjsjzqrcccgfqqcqccj6rcfrcfqzcr6czrzcbc",
"zcccrzjccsccjf6zqscjscccqc6knjczckNcsjbcrbcnzzczkgcjikzjccrzjscsjgqqzckczsczfzczqcfzqNcrcjbc",
"7jnNrwcszwNqbNztnzzjjccjzzqzsccjzw6ccMjjcqzrcNNzNqcbqcrNnzqqqqcgjcccc0jcjcffcccNcNcccqqzzqcN",
"jsbj6cjcq6jq7czrqqzzjfqzwqq0cMzttzjjnccqNcjjknqwzjNzrNwwcnqwzNzz0NNcczcj6jqcqMjrbcqzzqzqwrcc",
"cccncczwNqzjNcNkkkjzkkNwzwzzcqNwwrzzNwwNjzztw0q00zNjkNNzNwznqjczhcNczctzrNcgztqrj7cqccsqzcNz",
"zcccNbqczqqzNjknNNNgwqwtzwbNNqwzcNqzqrNqzjcztzzwqztzzwwzqNcNwtzrNczwwzrzrwccnczncjcjzjzrrrNz",
"zjzzjbzbwcwwNw0zbNNzzrwzwNwqzwzrwqzqNwzzcrNwwwwzzzwNcwwqzNNtczztcNtrqNczNcNzzznNrzzMNNncNccz",
"tntrcmNczNzcqznNtzNcztwwwwtkczzwwNwwqwNzNwNcNwwczNtczztNNNzkctzqzwkzMzzMcNNzwNncNNctcNzNnwkt",
"cNbmcsjjzwNzNNcNkkNzNNNzkNwNNcNqzNwNzwNtkNwcNzwccrNjnzbNcgkjMnzzMwNNNnNzcNNcNcMMzNNwNcNzNczn",
"ccNcNNzNwzNNzzNNNNNNzzNNNNcckNwc0tNcczczNccNnNNcNzzNNNNNNNNzNNNNNzcNNzczNNNNcnNNzzcNNzzMcNNN",
"bbmcBNNnNztcjNNNNNNNzNNwkNNNcNcNzczNNrNwtNzzNNNNNNbtzcBnNBNNNNNwNNNnNNnNNNzNNzNMNwcNNNMwcNNr",
"NzNNMN0NNNNwNNNzNNNkNkzzNNNzcNNNNwwtwzNNNzNbNnzNNNNNwNnMbcNmzNNNcNNNNNNNNNMNzNNNtzNNcNNNNNcM",
"zzwNNNNNzNNbNNNBNNNwNNNMNcNBNNMMNMzMNMNNNNNNNNNNnzNNNNNNNNNNcNNczNcNnNnNNtNNNNNNNNNNMNNMNNNN",
"NNcNzNNNNNNNzzNNBbBCNNNNzzNNNwNNNNBNNNNNzNNNNNNNNNwNNMNNNMNNBNNzNzNNNNBNzNcNNzNNNNwNNNNNNrNN",
"BNBNzwNNtwNBNkNNNBNBBNnNNNBNNNzNNNNMNNMNgNNNNNNNNNNNNNNNNNNNNNNcnNNNNNNNNnNNMNNNwNNMNBNNBNNy",
"NNNNNBNNwNNNNtwCNBNNNbNCNBNNNNNNNCCNNNNNNNNNBNNNNNBBNNNNNNBNNNNNNNCNBNNNNCNNCNNNNNNBNMBNBNNy",
"BBxBNNCNNNNNNNNBBCNNNBBCNNNNBBNtNBNBNNNBNBBBCBBBNNNNNNNNNNNkNNNNBNNkBBtBNNNBBNNBNNNNCNNNBBBN",
"nNNNNNNCBNNNtBBBBNNNBNBBNBNNNBNNBBBMNNNBNNBNBNMBNCNCCCNNNCCNBNBNNNNNNBNNNkNBtBNCBNBNNBBBNNBB",
"BBBNNNCNBNCBNCNNNNNNBtNNNtNtNNNNBBBNNBCNNNBBCBBBNCNBNCNBkNNCBBBNNNNNtNtNNNNttVNNNNBNBBBBBBCB",
"BNBnNCNNNNcBVNBNNNCNBNNNNNNZttNNNBByBNNNNbCCBBBNNCNBNNNBNBNNBNNNCCNVtBtuVBBNBtNNBNVNyNByCNNB",
"CNBNxtttNBBBBBBNCNBBBNBNyBBNuBNNtyBBNNNCBBNBNBNyNNBBCVNBBVNBNNtVBBVNBtNBNBNNCNNVNNNZNttNMSBB",
"NBttxCkZNBBNBBBBNBBBBBBNMyBBNBBBBtBBNNCBBBByBBuNBVVBBBBVBNBBBCBBBNBBBuBtuBuVVBBtBBBBBBBNBBBN",
"CCuttBBVtttBVNBtBBBNtBCCBySBBBBBNtBVBBNBBBBBBNBVBuBBNVNNNBBBBBBBVBNtBBuNBBBBNNVkNVNNtNNNByNN",
"NBBBBBCktZBBBNBBNCVBVBNNBBBBBBZNBVtNVBBBBNBNBBBBBNNuBBzBVBBBBVBBBBZBuBtNVBVBBBNNBVBtBZtZyNVN",
"VBBBBBVBBBVBNBVVNNBBBNNVVBBBVBANNVNVNVVBBtBBBBBVBBBBBzBVtNBuBVBBBNVBNVVVNNVNkVVVVBVBBBBVBBBN",
"NVBBBBBBBBBNBVNNNBCVBBVBAByBByBBNVBVVBBBBVBVVBVBVBBVCBBVBVVBNBBBVVVNuNNVCuuCkCVVuNBZBVVBABCB",
"NBBVBBBVZtVNNBBNVVVBVBNVBBBBBVBBzVVCCBBNBVBBVBNBVCNVVNCNVVBBBVBBNVVNVNNVVNVCVVVNNBBBVVVBBVVC",
"BBCVVVBBNNVBuZBtBBBBBBVyVNBBVyBVVCNNBBZCNVVuBVuVVVBBVtVZCBCBBBVBNCVCNCCNuVCkVuNVVVVBBBBBVVAV",
"ZVBCBBBBNVuVVuVNVVBBBVuVVyBBByVVVVCCNVNVBVBCVBVVBVVVNVVNNVBVBBVVVVNVCVVCCNuVuNNVVVBBVBVVVVVV",
"CVVBCZVBVBNVBBBuVBBVVVVNVVVByBVBVVVVZZVCVVVVBBVVVVZNNCVVCBBBVBVVVVVVVVVVkVNCVVVVVBVZBNuuBBVV",
"BBVVCVVBVBVBVBBVCVVVVuVyAuVyBVABuVVVVVVuVVVBVVVBttZVVVVVZVVVVCVBVVCVVVVuVuVuVVVVVuBVVVVyBVVV",
"VBVCBVBVVVVVVVVVVVVVVVVVVBVBVVVVVNZZtVVVCVuVVZVuZZVVVVVNVVVVZVVVVVVttVVVVVuVuVuVVVBZVVVVVVVV",
"BVVVVuVVVVVVVVVVVVVBBVVuVVVVVBVVVVVVuVVVVVVCVZVVVVVVZVVVVVVVVVVVVVZVVVuVBVVVVVZVuVVVuVVVVZVC",
"VVVVVuVVVVVVVVVVCVVZVVVVVVVVVVVVVVVVVuVVVVZVVVVVVVVVVVVVZZVVVVuVVVVuBVVVZVVVVVVVuVVZVVVVVVZC",
"VVVSVVVVVVVVVVVZZVVVVVVVyVVVAVVVVZVSVVVVDCVVuVVuVuVSVVVZDVVVVVZVVVVZZVVVVVVVVZZuuVVVuZuZNVZZ",
"VVVVVVVVVVVuuVVVVVCVVVAVVVVVVVVVVVVVuVVZZVZVVZZVVZVVZVZZDVZVZVuSVVZuZuVVVVZZVVVZZZZVZVZuVVZZ",
"VZVVVZuZDSVuVVVVZVVVVVuZuVVAAVVVuVZVVSZZVVZVZVSVCDDVVVAVVVVSVVSuVVuVVVZVZZVZVuZZZZZVVZZZuZuV",
"VVSVZVZVVVVZVZVZZVVVVVZVZVuVVAVVVZAVVVVZuVVVVZuSVDZZZuuZZZVuZVuZVZuZVVZZZVuuVZZZVZuZZVuZZuZu",
"VVZVVVVSZuVZVSZuVVVSVVVVZZZVVVVSVZuSSVZuZuZVSSuVVZVVZZZuuuZZVVZZZuZZZZZZZZZZVZVVVuZZZVZVuZVZ",
"SZVVVVSZVSuZZuSuZZVZSVZVVVSZVVSVVZZuSVuZZZVZVVSSSuSZuSuZZZSuZZZuZZVZZZZZZuZZZVVZZZVZZZZZZZZV",
"VVZuZZuZVZZZZVVAZZuZuSuASVZuSVZVZZuuZVVZSuVZZZuuVVuZZZZuZZuZZZZVVZZZZZZZZZZZZZZZVVZZZVZZZuZZ",
"ZZZuuuuZZSuZZZZuuuSVSVZVVSuSSSSVVZSVZSZZZVSuuSSZuASuuZuZZZZuZZuZVZZZuZuZZVZVZuZZZZZZZZZZZZZZ"
};
